<svg xmlns="http://www.w3.org/2000/svg" viewBox="0 0 128 128">
  <defs>
    <linearGradient id="bg" x1="0" y1="0" x2="1" y2="1">
      <stop offset="0%" stop-color="#6B8FD4"/>
      <stop offset="50%" stop-color="#9B6FC0"/>
      <stop offset="100%" stop-color="#D478A8"/>
    </linearGradient>
    <linearGradient id="star" x1="0" y1="0" x2="0" y2="1">
      <stop offset="0%" stop-color="#FFF8E7"/>
      <stop offset="100%" stop-color="#F0D48A"/>
    </linearGradient>
  </defs>
  <!-- Background circle -->
  <circle cx="64" cy="64" r="60" fill="url(#bg)" opacity="0.95"/>
  <!-- Stars -->
  <circle cx="64" cy="40" r="4" fill="url(#star)" opacity="0.9"/>
  <circle cx="40" cy="55" r="3" fill="url(#star)" opacity="0.7"/>
  <circle cx="88" cy="55" r="3" fill="url(#star)" opacity="0.7"/>
  <circle cx="50" cy="78" r="3.5" fill="url(#star)" opacity="0.6"/>
  <circle cx="78" cy="78" r="3.5" fill="url(#star)" opacity="0.6"/>
  <!-- Main icon shape - stylized Genshin door/portal -->
  <path d="M64 28 L80 44 L80 70 L64 86 L48 70 L48 44 Z"
        fill="none" stroke="#FFF" stroke-width="3" stroke-linejoin="round" opacity="0.9"/>
  <path d="M64 38 L72 48 L72 64 L64 74 L56 64 L56 48 Z"
        fill="none" stroke="#FFF" stroke-width="2" stroke-linejoin="round" opacity="0.7"/>
  <!-- Center diamond -->
  <circle cx="64" cy="56" r="6" fill="#FFF" opacity="0.8"/>
  <circle cx="64" cy="56" r="3" fill="url(#bg)" opacity="0.9"/>
  <!-- Small sparkles -->
  <rect x="52" y="32" width="1.5" height="1.5" fill="#FFF" opacity="0.7" transform="rotate(45 52.75 32.75)"/>
  <rect x="75" y="42" width="1.5" height="1.5" fill="#FFF" opacity="0.6" transform="rotate(45 75.75 42.75)"/>
  <rect x="42" y="66" width="1.5" height="1.5" fill="#FFF" opacity="0.5" transform="rotate(45 42.75 66.75)"/>
  <rect x="85" y="68" width="1.5" height="1.5" fill="#FFF" opacity="0.5" transform="rotate(45 85.75 68.75)"/>
</svg>
